<svg height="512" viewBox="0 0 512 512" width="512" xmlns="http://www.w3.org/2000/svg"><g id="FLAT"><path d="m374 176h84a22 22 0 0 1 22 22v266a0 0 0 0 1 0 0h-128a0 0 0 0 1 0 0v-266a22 22 0 0 1 22-22z" fill="#faa6b2"/><path d="m400 96h32v56h-32z" fill="#e2e2e2"/><path d="m400 96h32v8h-32z" fill="#cbcbcb"/><path d="m379.225 48a146.027 146.027 0 0 0 -91.225 32l24 16 31.7-12.682a46.4 46.4 0 0 1 17.235-3.318h23.065l16 16h32l16-16v-32z" fill="#e2e2e2"/><path d="m392 144h48v32h-48z" fill="#e2e2e2"/><path d="m408 144h16v32h-16z" fill="#cbcbcb"/><g fill="#d88f9a"><path d="m352 224h72a8 8 0 0 1 8 8v144a8 8 0 0 1 -8 8h-72a0 0 0 0 1 0 0v-160a0 0 0 0 1 0 0z"/><path d="m424 440h-72a8 8 0 0 1 0-16h72a8 8 0 0 1 0 16z"/><path d="m480 440h-24a8 8 0 0 1 0-16h24z"/></g><path d="m324 464h-104a28 28 0 0 1 -28-28v-134a30 30 0 0 1 30-30h100a30 30 0 0 1 30 30v134a28 28 0 0 1 -28 28z" fill="#92d1f7"/><path d="m224 224h96v48h-96z" fill="#e2e2e2"/><path d="m248 224h16v48h-16z" fill="#cbcbcb"/><path d="m280 224h16v48h-16z" fill="#cbcbcb"/><path d="m256 160h32v32h-32z" fill="#e2e2e2"/><path d="m256 160h32v8h-32z" fill="#cbcbcb"/><path d="m296 160h-40l-40 16-16-24 48-24h48a16 16 0 0 1 16 16 16 16 0 0 1 -16 16z" fill="#e2e2e2"/><path d="m248 192h48v32h-48z" fill="#e2e2e2"/><path d="m248 216h48v8h-48z" fill="#cbcbcb"/><path d="m192 312h74a22 22 0 0 1 22 22v68a22 22 0 0 1 -22 22h-74a0 0 0 0 1 0 0v-112a0 0 0 0 1 0 0z" fill="#5ebef7"/><path d="m32 416h192a0 0 0 0 1 0 0v26a22 22 0 0 1 -22 22h-148a22 22 0 0 1 -22-22v-26a0 0 0 0 1 0 0z" fill="#e2e2e2"/><path d="m179.752 416h-103.504a36.248 36.248 0 0 1 -36.248-36.248 36.248 36.248 0 0 1 48.636-34.066 115.193 115.193 0 0 0 78.728 0 36.248 36.248 0 0 1 48.636 34.066 36.248 36.248 0 0 1 -36.248 36.248z" fill="#fbb540"/><path d="m128 387.866a83.974 83.974 0 0 1 -26.529-4.277 8 8 0 1 1 5.058-15.178 68.34 68.34 0 0 0 42.942 0 8 8 0 1 1 5.058 15.178 83.974 83.974 0 0 1 -26.529 4.277z" fill="#d18d28"/><circle cx="128" cy="280" fill="#5ebef7" r="24"/><circle cx="120" cy="272" fill="#92d1f7" r="8"/><circle cx="60" cy="212" fill="#5ebef7" r="36"/><circle cx="52" cy="196" fill="#92d1f7" r="12"/><circle cx="120" cy="120" fill="#5ebef7" r="24"/><path d="m384 80h64l-16 16h-32z" fill="#b9b9b9"/><circle cx="112" cy="112" fill="#92d1f7" r="8"/></g></svg>