<svg id="Capa_1" enable-background="new 0 0 497 497" height="512" viewBox="0 0 497 497" width="512" xmlns="http://www.w3.org/2000/svg"><g><path d="m85.909 40.802h79.099v64.743h-79.099z" fill="#2ecefb"/><path d="m73.445 239.833 59.829 24.957 58.601-24.957c16.821 0 31.284-12.132 33.971-28.736.936-5.781 1.383-11.726 1.299-17.791-.756-54.435-44.907-98.918-99.206-100.224l-26.327 9.719-49.355 107.258z" fill="#a4e7ff"/><path d="m127.938 93.089c-.369-.009-.736-.024-1.105-.029-56.795-.75-103.071 45.064-103.071 101.687 0 5.591.452 11.076 1.321 16.421 2.694 16.575 17.166 28.664 33.959 28.664l6.803 4.479 7.6-4.479c6.869-53.712 25.999-103.591 54.493-146.743z" fill="#2ecefb"/><path d="m143.235 497h47.194c16.455 0 30.74-13.933 34.308-33.553 1.583-8.702 2.418-17.748 2.418-27.033 0-6.828-.452-13.527-1.321-20.056-2.694-20.245-17.166-35.011-33.959-35.011l-54.439-19.746-53.101 19.746-13.707 18.918 36.285 86.553z" fill="#a4e7ff"/><path d="m84.335 381.347-13.707-7.058-11.586 7.058c-16.905 0-31.343 14.979-34.007 35.369-.911 6.976-1.347 14.147-1.263 21.46.1 8.806.963 17.398 2.509 25.683 3.629 19.441 17.904 33.141 34.229 33.141h82.725c-26.391-34.075-46.586-73.188-58.9-115.653z" fill="#2ecefb"/><path d="m163.541 53.198h-76.165c-5.029 0-9.107-4.077-9.107-9.107v-18.198c.001-14.3 11.593-25.893 25.894-25.893h42.591c14.301 0 25.893 11.593 25.893 25.893v18.198c0 5.029-4.077 9.107-9.106 9.107z" fill="#4a66a0"/><path d="m469.456 317.409 3.697-40.555c1.078-11.827-8.233-22.025-20.109-22.025h-76.962l-46.052 17.328-8.019 85.5h100.734z" fill="#a4e7ff"/><path d="m343.951 317.411c6.638-23.045 17.666-44.229 32.131-62.582h-62.651c-11.876 0-21.187 10.199-20.109 22.025l3.697 40.555 22.674 12.389z" fill="#2ecefb"/><path d="m389.497 497h45.153c10.442 0 19.161-7.961 20.109-18.359l14.697-161.232h-125.505l-26.727 12.389v71.777l39.136 84.736z" fill="#2ecefb"/><path d="m336.785 368.312c0-17.663 2.502-34.739 7.16-50.903h-46.925l14.697 161.232c.948 10.398 9.667 18.359 20.109 18.359h57.671c-32.594-33.118-52.712-78.551-52.712-128.688z" fill="#00bdfd"/><path d="m84.335 381.347h108.323c18.841 0 34.115-15.274 34.115-34.115v-73.285c0-18.841-15.274-34.115-34.115-34.115h-119.213l-17.817 13.08 2.491 110.01z" fill="#2ecefb"/><path d="m70.617 284.364c0-15.088.963-29.951 2.828-44.531h-14.95c-18.841 0-34.115 15.274-34.115 34.115v73.285c0 18.841 15.274 34.115 34.115 34.115h25.84c-8.927-30.783-13.718-63.323-13.718-96.984z" fill="#00bdfd"/><g fill="#303646"><path d="m63.128 320.519c-4.142 0-7.5-3.358-7.5-7.5v-12c0-4.142 3.358-7.5 7.5-7.5s7.5 3.358 7.5 7.5v12c0 4.142-3.358 7.5-7.5 7.5z"/><path d="m188.025 320.519c-4.142 0-7.5-3.358-7.5-7.5v-12c0-4.142 3.358-7.5 7.5-7.5s7.5 3.358 7.5 7.5v12c0 4.142-3.358 7.5-7.5 7.5z"/><path d="m125.576 327.662c-8.478 0-16.54-3.671-22.119-10.073-2.721-3.123-2.396-7.86.727-10.582 3.123-2.721 7.861-2.396 10.582.727 2.729 3.132 6.669 4.928 10.81 4.928s8.081-1.796 10.81-4.928c2.721-3.123 7.459-3.447 10.582-.727 3.123 2.722 3.448 7.459.727 10.582-5.579 6.401-13.641 10.073-22.119 10.073z"/></g></g></svg>