<svg id="Capa_1" enable-background="new 0 0 510 510" height="512" viewBox="0 0 510 510" width="512" xmlns="http://www.w3.org/2000/svg" xmlns:xlink="http://www.w3.org/1999/xlink"><linearGradient id="lg1"><stop offset="0" stop-color="#017297"/><stop offset="1" stop-color="#024c67"/></linearGradient><linearGradient id="SVGID_1_" gradientUnits="userSpaceOnUse" x1="255" x2="255" xlink:href="#lg1" y1="443.333" y2="512.029"/><linearGradient id="lg2"><stop offset="0" stop-color="#024c67" stop-opacity="0"/><stop offset=".2251" stop-color="#0a4a63" stop-opacity=".225"/><stop offset=".572" stop-color="#204657" stop-opacity=".572"/><stop offset=".9956" stop-color="#433f44" stop-opacity=".996"/><stop offset="1" stop-color="#433f43"/></linearGradient><linearGradient id="SVGID_00000172427358393056665290000006375432609693881737_" gradientUnits="userSpaceOnUse" x1="255" x2="255" xlink:href="#lg2" y1="466" y2="436.599"/><linearGradient id="SVGID_00000095325922669501177450000013243482640118454964_" gradientUnits="userSpaceOnUse" x1="255" x2="255" xlink:href="#lg1" y1="509.333" y2="475.894"/><linearGradient id="SVGID_00000007394086670890873410000006508262131064686760_" gradientUnits="userSpaceOnUse" x1="107.472" x2="425.001" xlink:href="#lg1" y1="119.473" y2="437.003"/><linearGradient id="SVGID_00000036231618689693992320000013627782039647451582_" gradientUnits="userSpaceOnUse" x1="322.347" x2="197.318" xlink:href="#lg1" y1="436.53" y2="121.801"/><linearGradient id="SVGID_00000084493246152801007040000000553045628219080072_" gradientUnits="userSpaceOnUse" x1="374.632" x2="350.132" xlink:href="#lg2" y1="151.303" y2="67.803"/><linearGradient id="SVGID_00000111892719297739686270000008597575521522302873_" gradientUnits="userSpaceOnUse" x1="328.564" x2="256.698" xlink:href="#lg2" y1="205.769" y2="133.903"/><linearGradient id="SVGID_00000049202061153801612900000009558598490293608863_" gradientUnits="userSpaceOnUse" x1="255" x2="255" xlink:href="#lg2" y1="333.208" y2="442.703"/><linearGradient id="SVGID_00000023967640765940207380000001263836206334670513_" gradientUnits="userSpaceOnUse" x1="529.271" x2="418.604" xlink:href="#lg2" y1="397.436" y2="364.769"/><linearGradient id="SVGID_00000128458590494347831220000016107691509260124289_" gradientUnits="userSpaceOnUse" x1="230.035" x2="327.53" y1="210.542" y2="431.031"><stop offset="0" stop-color="#62dbfb"/><stop offset=".1912" stop-color="#57d5fa"/><stop offset=".5232" stop-color="#3bc5f7"/><stop offset=".954" stop-color="#0dabf2"/><stop offset="1" stop-color="#08a9f1"/></linearGradient><linearGradient id="lg3"><stop offset="0" stop-color="#eaf9fa"/><stop offset="1" stop-color="#b3dafe"/></linearGradient><linearGradient id="SVGID_00000095312980085567082030000005790446016821358978_" gradientUnits="userSpaceOnUse" x1="333.911" x2="491.157" xlink:href="#lg3" y1="183.436" y2="451.107"/><linearGradient id="SVGID_00000022557647469586514520000001506233216699660436_" gradientUnits="userSpaceOnUse" x1="347.736" x2="534.692" xlink:href="#lg3" y1="156.593" y2="474.838"/><linearGradient id="SVGID_00000058550700182471739220000008570032756445373831_" gradientUnits="userSpaceOnUse" x1="302.254" x2="468.41" xlink:href="#lg3" y1="208.876" y2="491.714"/><linearGradient id="lg4"><stop offset="0" stop-color="#0593fc" stop-opacity="0"/><stop offset=".6831" stop-color="#0389fc" stop-opacity=".683"/><stop offset="1" stop-color="#0182fc"/></linearGradient><linearGradient id="SVGID_00000163752907884280864940000002595647255240895156_" gradientUnits="userSpaceOnUse" x1="498" x2="402.434" xlink:href="#lg4" y1="334.126" y2="334.126"/><linearGradient id="SVGID_00000158003506738820984000000017874166415857605781_" gradientUnits="userSpaceOnUse" x1="356.229" x2="374.592" y1="264.797" y2="283.161"><stop offset="0" stop-color="#fee45a"/><stop offset=".208" stop-color="#fede54"/><stop offset=".5015" stop-color="#fece41"/><stop offset=".8442" stop-color="#feb423"/><stop offset="1" stop-color="#fea613"/></linearGradient><linearGradient id="SVGID_00000039834011477220347820000012393468294794103444_" gradientUnits="userSpaceOnUse" x1="313.054" x2="419.613" xlink:href="#lg1" y1="365.117" y2="365.117"/><linearGradient id="SVGID_00000121268188665568862810000008937490974682126748_" gradientUnits="userSpaceOnUse" x1="385.193" x2="420.16" xlink:href="#lg2" y1="365.117" y2="365.117"/><linearGradient id="SVGID_00000016033124383017170480000013785838910736540319_" gradientUnits="userSpaceOnUse" x1="366.333" x2="366.333" xlink:href="#lg2" y1="417.482" y2="453.864"/><linearGradient id="SVGID_00000091729956191117593940000005931687190091754374_" gradientUnits="userSpaceOnUse" x1="330.229" x2="348.592" xlink:href="#lg3" y1="320.131" y2="338.494"/><linearGradient id="SVGID_00000077324687461588654490000015832235969288575395_" gradientUnits="userSpaceOnUse" x1="356.229" x2="374.592" xlink:href="#lg3" y1="320.131" y2="338.494"/><linearGradient id="SVGID_00000051379576924231341000000002491406480677433269_" gradientUnits="userSpaceOnUse" x1="382.229" x2="400.592" xlink:href="#lg3" y1="320.131" y2="338.494"/><linearGradient id="SVGID_00000047037103656198235760000013521654701722974091_" gradientUnits="userSpaceOnUse" x1="330.229" x2="348.592" xlink:href="#lg3" y1="348.631" y2="366.994"/><linearGradient id="SVGID_00000119823169534698228490000017297553092055593914_" gradientUnits="userSpaceOnUse" x1="356.229" x2="374.592" xlink:href="#lg3" y1="348.631" y2="366.994"/><linearGradient id="SVGID_00000147913692868191620720000014877461367955975058_" gradientUnits="userSpaceOnUse" x1="382.229" x2="400.592" xlink:href="#lg3" y1="348.631" y2="366.994"/><linearGradient id="SVGID_00000006690039686815493240000003868394632510058121_" gradientUnits="userSpaceOnUse" x1="330.229" x2="348.592" xlink:href="#lg3" y1="377.131" y2="395.494"/><linearGradient id="SVGID_00000172442528936705097970000016645932780497040536_" gradientUnits="userSpaceOnUse" x1="356.229" x2="374.592" xlink:href="#lg3" y1="377.131" y2="395.494"/><linearGradient id="SVGID_00000070084703219799365810000005519040786586217363_" gradientUnits="userSpaceOnUse" x1="382.229" x2="400.592" xlink:href="#lg3" y1="377.131" y2="395.494"/><linearGradient id="SVGID_00000134934754369566322930000018406656301154384552_" gradientUnits="userSpaceOnUse" x1="330.229" x2="348.592" xlink:href="#lg3" y1="405.631" y2="423.994"/><linearGradient id="SVGID_00000029754791431029949060000016820897171043662010_" gradientUnits="userSpaceOnUse" x1="382.229" x2="400.592" xlink:href="#lg3" y1="405.631" y2="423.994"/><linearGradient id="SVGID_00000000213647400505801680000010433644931929492390_" gradientUnits="userSpaceOnUse" x1="329.191" x2="339.822" y1="290.887" y2="301.518"><stop offset="0" stop-color="#fe0364"/><stop offset=".2568" stop-color="#f3035f"/><stop offset=".7013" stop-color="#d70252"/><stop offset="1" stop-color="#c00148"/></linearGradient><linearGradient id="SVGID_00000086662981522743333760000002916519091156441232_" gradientUnits="userSpaceOnUse" x1="315.277" x2="224.709" xlink:href="#lg4" y1="192.482" y2="101.914"/><linearGradient id="lg5"><stop offset="0" stop-color="#aeffd1"/><stop offset=".1201" stop-color="#a3f9cb"/><stop offset=".3288" stop-color="#87eab9"/><stop offset=".6012" stop-color="#59d19d"/><stop offset=".9235" stop-color="#19af77"/><stop offset="1" stop-color="#09a76d"/></linearGradient><linearGradient id="SVGID_00000122710611832765386870000003904836288476812988_" gradientUnits="userSpaceOnUse" x1="247.838" x2="260.05" xlink:href="#lg5" y1="80.095" y2="115.035"/><linearGradient id="SVGID_00000124884019345061362640000007354711759568579768_" gradientUnits="userSpaceOnUse" x1="244.732" x2="258.641" xlink:href="#lg5" y1="32.547" y2="83.092"/><linearGradient id="SVGID_00000063624135342293457280000001007117953057968269_" gradientUnits="userSpaceOnUse" x1="244.252" x2="259.178" xlink:href="#lg5" y1="-3.304" y2="51.312"/><linearGradient id="SVGID_00000060729348959969453230000016961273613560855944_" gradientUnits="userSpaceOnUse" x1="238.717" x2="265.686" xlink:href="#lg5" y1="115.921" y2="142.891"/><linearGradient id="SVGID_00000059273816513399060410000017309946438470982796_" gradientUnits="userSpaceOnUse" x1="81.297" x2="106.796" xlink:href="#lg3" y1="161.524" y2="242.519"/><linearGradient id="SVGID_00000007412834738408031700000002721788420710595214_" gradientUnits="userSpaceOnUse" x1="130.309" x2="155.807" xlink:href="#lg3" y1="146.094" y2="227.09"/><g><path d="m391.33 493.944c-.067-.038-.135-.075-.202-.112-26.391-14.429-55.576-24.419-86.144-29.63-12.218-2.083-21.924-11.421-24.581-23.528l-7.268-33.123c-.603-2.746-8.543-4.885-18.135-4.885-9.592 0-17.533 2.139-18.135 4.885l-7.268 33.123c-2.656 12.107-12.362 21.445-24.581 23.528-30.568 5.211-59.753 15.202-86.144 29.63-.068.037-.135.074-.203.112-7.677 4.291-4.465 16.055 4.33 16.055h54.482c3.477 0 6.939-.482 10.275-1.463 21.444-6.307 44.133-9.569 67.244-9.569s45.801 3.261 67.244 9.569c3.336.981 6.798 1.463 10.275 1.463h54.482c8.795.001 12.006-11.764 4.329-16.055z" fill="url(#SVGID_1_)"/><path d="m348.937 475.333c-14.205-4.839-28.91-8.567-43.953-11.131-12.218-2.083-21.924-11.421-24.581-23.528l-7.268-33.123c-.603-2.746-8.543-4.885-18.135-4.885-9.592 0-17.533 2.139-18.135 4.885l-7.268 33.123c-2.656 12.107-12.362 21.445-24.581 23.528-15.043 2.564-29.748 6.292-43.953 11.131z" fill="url(#SVGID_00000172427358393056665290000006375432609693881737_)"/><path d="m122.343 509.972c.216.015.433.028.657.028h54.482c3.477 0 6.939-.482 10.275-1.463 21.443-6.307 44.133-9.569 67.244-9.569s45.8 3.261 67.244 9.569c3.336.981 6.798 1.463 10.275 1.463h54.482c.223 0 .44-.013.656-.028-39.706-20.934-85.48-31.983-132.657-31.983s-92.952 11.049-132.658 31.983z" fill="url(#SVGID_00000095325922669501177450000013243482640118454964_)"/><g><path d="m486.992 435.987h-463.984c-12.707 0-23.008-10.302-23.008-23.009v-291.954c0-12.707 10.301-23.008 23.008-23.008h463.983c12.707 0 23.008 10.301 23.008 23.008v291.954c.001 12.707-10.3 23.009-23.007 23.009z" fill="url(#SVGID_00000007394086670890873410000006508262131064686760_)"/><path d="m14.71 402.72v-271.438c0-8.262 6.698-14.96 14.96-14.96h450.66c8.262 0 14.96 6.698 14.96 14.96v271.438c0 8.262-6.698 14.96-14.96 14.96h-450.66c-8.262 0-14.96-6.698-14.96-14.96z" fill="url(#SVGID_00000036231618689693992320000013627782039647451582_)"/><path d="m486.992 98.016h-263.677l-7.381 7.381 294.066 294.065v-278.438c0-12.707-10.301-23.008-23.008-23.008z" fill="url(#SVGID_00000084493246152801007040000000553045628219080072_)"/><path d="m266.874 120.331-23.747 23.747 118.575 118.575c1.213-6.336 7.644-31.544 9.036-38.459z" fill="url(#SVGID_00000111892719297739686270000008597575521522302873_)"/><path d="m0 310.551v102.427c0 12.707 10.301 23.008 23.008 23.008h463.983c12.707 0 23.008-10.301 23.008-23.008v-102.427z" fill="url(#SVGID_00000049202061153801612900000009558598490293608863_)"/><path d="m486.992 435.987c12.707 0 23.008-10.301 23.008-23.008v-39.645l-94-94-15.91 15.91-27.049-27.049v167.792z" fill="url(#SVGID_00000023967640765940207380000001263836206334670513_)"/><path d="m32 386.515v-239.028c0-7.479 6.063-13.542 13.542-13.542h418.915c7.479 0 13.542 6.063 13.542 13.542v239.028c0 7.479-6.063 13.542-13.542 13.542h-418.915c-7.479.001-13.542-6.063-13.542-13.542z" fill="url(#SVGID_00000128458590494347831220000016107691509260124289_)"/><g><path d="m373.83 231.753v13.919c0 4.085-3.339 7.331-7.424 7.328-.025 0-.051 0-.076 0s-.051 0-.076 0c-4.085.003-7.424-3.243-7.424-7.328v-14.172c0-4.462 3.903-8.018 8.478-7.438 3.783.479 6.522 3.878 6.522 7.691z" fill="url(#SVGID_00000095312980085567082030000005790446016821358978_)"/><g><path d="m414.498 247.34-6.733 16.552c-1.705 4.191-6.761 5.852-10.615 3.481-.099-.061-.198-.122-.298-.182-3.062-1.869-4.316-5.681-2.965-9.004l6.709-16.497c1.56-3.84 5.94-5.68 9.78-4.12 3.832 1.56 5.682 5.93 4.122 9.77z" fill="url(#SVGID_00000022557647469586514520000001506233216699660436_)"/><path d="m335.651 267.288c-.1.061-.199.122-.299.184-3.818 2.358-8.838.744-10.583-3.39l-6.568-15.562c-1.61-3.82.18-8.22 4-9.83s8.22.18 9.83 4l6.543 15.509c1.408 3.337.165 7.197-2.923 9.089z" fill="url(#SVGID_00000058550700182471739220000008570032756445373831_)"/></g></g><path d="m416 279.333-15.91 15.91-27.049-27.049v131.863h91.417c7.479 0 13.542-6.063 13.542-13.542v-45.182z" fill="url(#SVGID_00000163752907884280864940000002595647255240895156_)"/></g><g><circle cx="366.333" cy="274.902" fill="url(#SVGID_00000158003506738820984000000017874166415857605781_)" r="9.486"/><g><g><path d="m410.673 376.152c0-14.033 1.641-26.855 4.349-36.657 2.973-10.761 4.591-21.851 4.591-33.016v-18.047c0-7.843-6.358-14.201-14.201-14.201h-78.157c-7.843 0-14.2 6.358-14.2 14.201v18.047c0 11.164 1.617 22.254 4.591 33.016 2.708 9.802 4.349 22.624 4.349 36.657 0 17.517-2.557 33.147-6.555 43.372-1.59 4.067-2.385 8.399-2.385 12.766 0 13.096 10.617 23.713 23.713 23.713h59.132c13.096 0 23.713-10.617 23.713-23.713 0-4.367-.794-8.699-2.385-12.766-3.999-10.225-6.555-25.855-6.555-43.372z" fill="url(#SVGID_00000039834011477220347820000012393468294794103444_)"/><path d="m405.412 274.231h-38.677v181.771h29.165c13.096 0 23.713-10.617 23.713-23.713 0-4.367-.794-8.699-2.385-12.766-3.998-10.225-6.555-25.854-6.555-43.372 0-14.033 1.641-26.855 4.349-36.657 2.973-10.761 4.591-21.851 4.591-33.016v-18.047c0-7.842-6.358-14.2-14.201-14.2z" fill="url(#SVGID_00000121268188665568862810000008937490974682126748_)"/><path d="m315.439 419.523c-1.59 4.067-2.385 8.399-2.385 12.766 0 13.096 10.617 23.713 23.713 23.713h59.132c13.096 0 23.713-10.617 23.713-23.713 0-4.367-.794-8.699-2.385-12.766-2.384-6.096-4.255-14.115-5.378-23.309h-91.034c-1.121 9.195-2.992 17.213-5.376 23.309z" fill="url(#SVGID_00000016033124383017170480000013785838910736540319_)"/></g><g><circle cx="340.333" cy="330.235" fill="url(#SVGID_00000091729956191117593940000005931687190091754374_)" r="9.486"/><circle cx="366.333" cy="330.235" fill="url(#SVGID_00000077324687461588654490000015832235969288575395_)" r="9.486"/><circle cx="392.333" cy="330.235" fill="url(#SVGID_00000051379576924231341000000002491406480677433269_)" r="9.486"/></g><g><circle cx="340.333" cy="358.735" fill="url(#SVGID_00000047037103656198235760000013521654701722974091_)" r="9.486"/><circle cx="366.333" cy="358.735" fill="url(#SVGID_00000119823169534698228490000017297553092055593914_)" r="9.486"/><circle cx="392.333" cy="358.735" fill="url(#SVGID_00000147913692868191620720000014877461367955975058_)" r="9.486"/></g><g><circle cx="340.333" cy="387.235" fill="url(#SVGID_00000006690039686815493240000003868394632510058121_)" r="9.486"/><circle cx="366.333" cy="387.235" fill="url(#SVGID_00000172442528936705097970000016645932780497040536_)" r="9.486"/><circle cx="392.333" cy="387.235" fill="url(#SVGID_00000070084703219799365810000005519040786586217363_)" r="9.486"/></g><g><circle cx="340.333" cy="415.735" fill="url(#SVGID_00000134934754369566322930000018406656301154384552_)" r="9.486"/><circle cx="392.333" cy="415.735" fill="url(#SVGID_00000029754791431029949060000016820897171043662010_)" r="9.486"/></g><circle cx="334.924" cy="296.62" fill="url(#SVGID_00000000213647400505801680000010433644931929492390_)" r="13.291"/></g></g><path d="m243.126 144.078 97.523 97.523c9.179 9.179 24.875 4.757 27.9-7.867.035-.146.07-.292.105-.437 1.343-5.615-.331-11.518-4.413-15.6l-83.754-83.754h-27.227z" fill="url(#SVGID_00000086662981522743333760000002916519091156441232_)"/><g><g><path d="m291.387 93.092c-10.853-6.973-23.436-10.659-36.387-10.659s-25.533 3.686-36.387 10.658c-4.138 2.659-5.337 8.168-2.679 12.305s8.167 5.336 12.305 2.679c7.976-5.124 17.23-7.833 26.761-7.833s18.785 2.709 26.761 7.833c1.49.957 3.156 1.414 4.805 1.414 2.93 0 5.799-1.445 7.5-4.093 2.658-4.137 1.459-9.646-2.679-12.304z" fill="url(#SVGID_00000122710611832765386870000003904836288476812988_)"/><path d="m313.093 60.253c-17.299-11.235-37.387-17.174-58.093-17.174s-40.794 5.939-58.093 17.174c-5.303 3.444-6.81 10.535-3.365 15.838 3.444 5.303 10.536 6.809 15.838 3.365 13.577-8.818 29.352-13.479 45.62-13.479s32.044 4.661 45.62 13.479c1.926 1.251 4.088 1.849 6.225 1.849 3.747 0 7.42-1.838 9.612-5.214 3.445-5.303 1.938-12.394-3.364-15.838z" fill="url(#SVGID_00000124884019345061362640000007354711759568579768_)"/><path d="m336.84 24.299c-24.347-15.897-52.648-24.299-81.84-24.299-29.193 0-57.492 8.402-81.84 24.299-6.471 4.225-8.292 12.896-4.067 19.367s12.896 8.292 19.367 4.067c19.786-12.918 42.795-19.747 66.54-19.747s46.754 6.828 66.54 19.747c2.36 1.541 5.013 2.278 7.637 2.278 4.568 0 9.046-2.234 11.73-6.345 4.225-6.471 2.404-15.142-4.067-19.367z" fill="url(#SVGID_00000063624135342293457280000001007117953057968269_)"/></g><circle cx="255" cy="132.205" fill="url(#SVGID_00000060729348959969453230000016961273613560855944_)" r="16.792"/></g><g><path d="m101.772 154.115c3.135 0 4.465 3.421 4.465 6.556 0 3.61-1.615 6.745-4.465 6.745h-13.11v51.586c0 3.039-3.705 4.56-7.41 4.56s-7.41-1.521-7.41-4.56v-51.586h-13.11c-2.85 0-4.465-3.135-4.465-6.745 0-3.135 1.33-6.556 4.465-6.556z" fill="url(#SVGID_00000059273816513399060410000017309946438470982796_)"/><path d="m107.566 161.24c-.096-.38-.19-.76-.19-1.045 0-3.515 5.415-6.08 9.5-6.08 2.375 0 4.275.761 4.846 2.756l13.3 48.735 13.205-48.735c.57-1.995 2.47-2.756 4.845-2.756 4.086 0 9.501 2.565 9.501 6.08 0 .285-.096.665-.19 1.045l-17.67 57.951c-1.045 3.325-5.32 4.94-9.69 4.94s-8.646-1.615-9.69-4.94z" fill="url(#SVGID_00000007412834738408031700000002721788420710595214_)"/></g></g></svg>